REM GENRE "Genre"
REM DATE 2013
REM DISCID 123456789
PERFORMER "Artist_05"
TITLE "Album"
FILE "01 - Song Title 01.wav" WAVE
  TRACK 01 AUDIO
    TITLE "Song Title 01"
    INDEX 00 00:00:00
    INDEX 01 00:00:33
  TRACK 02 AUDIO
    TITLE "Song Title 02"
FILE "02 - Song Title 02.wav" WAVE
    INDEX 01 00:00:00
  TRACK 03 AUDIO
    TITLE "Song Title 03"
    INDEX 00 00:36:22
FILE "03 - Song Title 03.wav" WAVE
    INDEX 01 00:00:00
  TRACK 04 AUDIO
    TITLE "Song Title 04"
    INDEX 00 01:14:44
FILE "04 - Song Title 04.wav" WAVE
    INDEX 01 00:00:00
